<svg width="148" height="67" viewBox="0 0 148 67" fill="none" xmlns="http://www.w3.org/2000/svg">
<path d="M15.888 43.48C12.688 43.48 10.032 43.032 7.92 42.136C5.808 41.208 4.208 40.008 3.12 38.536C2.032 37.064 1.456 35.496 1.392 33.832C1.392 33.576 1.488 33.352 1.68 33.16C1.904 32.936 2.16 32.824 2.448 32.824H8.496C8.944 32.824 9.28 32.904 9.504 33.064C9.76 33.224 9.984 33.432 10.176 33.688C10.432 34.168 10.784 34.632 11.232 35.08C11.712 35.528 12.32 35.896 13.056 36.184C13.824 36.44 14.768 36.568 15.888 36.568C17.744 36.568 19.136 36.28 20.064 35.704C21.024 35.128 21.504 34.344 21.504 33.352C21.504 32.648 21.248 32.072 20.736 31.624C20.224 31.144 19.392 30.728 18.24 30.376C17.12 29.992 15.616 29.608 13.728 29.224C11.296 28.712 9.216 28.056 7.488 27.256C5.792 26.424 4.496 25.352 3.6 24.04C2.704 22.696 2.256 21.032 2.256 19.048C2.256 17.096 2.8 15.352 3.888 13.816C5.008 12.28 6.56 11.08 8.544 10.216C10.528 9.352 12.88 8.92 15.6 8.92C17.808 8.92 19.744 9.208 21.408 9.784C23.104 10.36 24.528 11.128 25.68 12.088C26.832 13.048 27.696 14.072 28.272 15.16C28.88 16.216 29.2 17.256 29.232 18.28C29.232 18.536 29.136 18.776 28.944 19C28.752 19.192 28.512 19.288 28.224 19.288H21.888C21.536 19.288 21.232 19.224 20.976 19.096C20.72 18.968 20.496 18.76 20.304 18.472C20.112 17.768 19.6 17.16 18.768 16.648C17.968 16.104 16.912 15.832 15.6 15.832C14.192 15.832 13.088 16.088 12.288 16.6C11.52 17.08 11.136 17.832 11.136 18.856C11.136 19.496 11.344 20.056 11.76 20.536C12.208 21.016 12.928 21.432 13.92 21.784C14.944 22.136 16.336 22.504 18.096 22.888C21.008 23.432 23.36 24.12 25.152 24.952C26.944 25.752 28.256 26.808 29.088 28.12C29.92 29.4 30.336 31.016 30.336 32.968C30.336 35.144 29.712 37.032 28.464 38.632C27.248 40.2 25.552 41.4 23.376 42.232C21.2 43.064 18.704 43.48 15.888 43.48ZM47.3813 43C45.3333 43 43.5573 42.68 42.0533 42.04C40.5813 41.368 39.4453 40.344 38.6453 38.968C37.8453 37.56 37.4453 35.752 37.4453 33.544V24.328H33.7013C33.3493 24.328 33.0453 24.216 32.7893 23.992C32.5653 23.768 32.4533 23.48 32.4533 23.128V19.24C32.4533 18.888 32.5653 18.6 32.7893 18.376C33.0453 18.152 33.3493 18.04 33.7013 18.04H37.4453V10.12C37.4453 9.768 37.5573 9.48 37.7812 9.256C38.0373 9.032 38.3253 8.92 38.6453 8.92H44.2133C44.5653 8.92 44.8533 9.032 45.0773 9.256C45.3013 9.48 45.4133 9.768 45.4133 10.12V18.04H51.4133C51.7653 18.04 52.0533 18.152 52.2773 18.376C52.5013 18.6 52.6133 18.888 52.6133 19.24V23.128C52.6133 23.48 52.5013 23.768 52.2773 23.992C52.0533 24.216 51.7653 24.328 51.4133 24.328H45.4133V32.872C45.4133 33.96 45.6213 34.824 46.0373 35.464C46.4533 36.104 47.1573 36.424 48.1493 36.424H51.8453C52.1973 36.424 52.4853 36.536 52.7093 36.76C52.9333 36.984 53.0453 37.272 53.0453 37.624V41.8C53.0453 42.152 52.9333 42.44 52.7093 42.664C52.4853 42.888 52.1973 43 51.8453 43H47.3813ZM68.8275 43.48C66.1395 43.48 63.8675 43.048 62.0115 42.184C60.1875 41.32 58.7795 40.088 57.7875 38.488C56.8275 36.856 56.2835 34.92 56.1555 32.68C56.1235 32.04 56.1075 31.32 56.1075 30.52C56.1075 29.688 56.1235 28.968 56.1555 28.36C56.2835 26.088 56.8595 24.152 57.8835 22.552C58.9075 20.952 60.3315 19.72 62.1555 18.856C64.0115 17.992 66.2355 17.56 68.8275 17.56C71.4515 17.56 73.6755 17.992 75.4995 18.856C77.3555 19.72 78.7955 20.952 79.8195 22.552C80.8435 24.152 81.4195 26.088 81.5475 28.36C81.5795 28.968 81.5955 29.688 81.5955 30.52C81.5955 31.32 81.5795 32.04 81.5475 32.68C81.4195 34.92 80.8595 36.856 79.8675 38.488C78.9075 40.088 77.4995 41.32 75.6435 42.184C73.8195 43.048 71.5475 43.48 68.8275 43.48ZM68.8275 37.624C70.2675 37.624 71.3075 37.192 71.9475 36.328C72.6195 35.464 73.0035 34.168 73.0995 32.44C73.1315 31.96 73.1475 31.32 73.1475 30.52C73.1475 29.72 73.1315 29.08 73.0995 28.6C73.0035 26.904 72.6195 25.624 71.9475 24.76C71.3075 23.864 70.2675 23.416 68.8275 23.416C67.4195 23.416 66.3795 23.864 65.7075 24.76C65.0355 25.624 64.6675 26.904 64.6035 28.6C64.5715 29.08 64.5555 29.72 64.5555 30.52C64.5555 31.32 64.5715 31.96 64.6035 32.44C64.6675 34.168 65.0355 35.464 65.7075 36.328C66.3795 37.192 67.4195 37.624 68.8275 37.624ZM87.5164 43C87.1644 43 86.8764 42.888 86.6524 42.664C86.4284 42.44 86.3164 42.152 86.3164 41.8V19.24C86.3164 18.888 86.4284 18.6 86.6524 18.376C86.8764 18.152 87.1644 18.04 87.5164 18.04H93.0364C93.3884 18.04 93.6764 18.152 93.9004 18.376C94.1244 18.6 94.2364 18.888 94.2364 19.24V21.064C95.0684 20.072 96.1564 19.24 97.5004 18.568C98.8444 17.896 100.428 17.56 102.252 17.56C104.108 17.56 105.74 17.976 107.148 18.808C108.588 19.64 109.708 20.872 110.508 22.504C111.34 24.104 111.756 26.072 111.756 28.408V41.8C111.756 42.152 111.628 42.44 111.372 42.664C111.148 42.888 110.876 43 110.556 43H104.508C104.188 43 103.9 42.888 103.644 42.664C103.42 42.44 103.308 42.152 103.308 41.8V28.696C103.308 27.192 102.94 26.04 102.204 25.24C101.5 24.408 100.444 23.992 99.0364 23.992C97.7244 23.992 96.6684 24.408 95.8684 25.24C95.1004 26.04 94.7164 27.192 94.7164 28.696V41.8C94.7164 42.152 94.5884 42.44 94.3324 42.664C94.1084 42.888 93.8364 43 93.5164 43H87.5164ZM128.633 43.48C124.857 43.48 121.849 42.456 119.609 40.408C117.369 38.36 116.201 35.32 116.105 31.288C116.105 31.064 116.105 30.776 116.105 30.424C116.105 30.072 116.105 29.8 116.105 29.608C116.201 27.08 116.761 24.92 117.785 23.128C118.841 21.304 120.281 19.928 122.105 19C123.961 18.04 126.121 17.56 128.585 17.56C131.401 17.56 133.721 18.12 135.545 19.24C137.401 20.36 138.793 21.88 139.721 23.8C140.649 25.72 141.113 27.912 141.113 30.376V31.528C141.113 31.88 140.985 32.168 140.729 32.392C140.505 32.616 140.233 32.728 139.913 32.728H124.553C124.553 32.76 124.553 32.808 124.553 32.872C124.553 32.936 124.553 33 124.553 33.064C124.585 33.992 124.745 34.84 125.033 35.608C125.321 36.376 125.769 36.984 126.377 37.432C126.985 37.88 127.721 38.104 128.585 38.104C129.225 38.104 129.753 38.008 130.169 37.816C130.617 37.592 130.985 37.352 131.273 37.096C131.561 36.808 131.785 36.568 131.945 36.376C132.233 36.056 132.457 35.864 132.617 35.8C132.809 35.704 133.097 35.656 133.481 35.656H139.433C139.753 35.656 140.009 35.752 140.201 35.944C140.425 36.104 140.521 36.344 140.489 36.664C140.457 37.208 140.185 37.864 139.673 38.632C139.161 39.4 138.409 40.168 137.417 40.936C136.457 41.672 135.241 42.28 133.769 42.76C132.297 43.24 130.585 43.48 128.633 43.48ZM124.553 27.976H132.665V27.88C132.665 26.856 132.505 25.96 132.185 25.192C131.897 24.424 131.433 23.832 130.793 23.416C130.185 23 129.449 22.792 128.585 22.792C127.721 22.792 126.985 23 126.377 23.416C125.801 23.832 125.353 24.424 125.033 25.192C124.713 25.96 124.553 26.856 124.553 27.88V27.976Z" fill="#506F8C"/>
<path d="M17.888 46.48C14.688 46.48 12.032 46.032 9.92 45.136C7.808 44.208 6.208 43.008 5.12 41.536C4.032 40.064 3.456 38.496 3.392 36.832C3.392 36.576 3.488 36.352 3.68 36.16C3.904 35.936 4.16 35.824 4.448 35.824H10.496C10.944 35.824 11.28 35.904 11.504 36.064C11.76 36.224 11.984 36.432 12.176 36.688C12.432 37.168 12.784 37.632 13.232 38.08C13.712 38.528 14.32 38.896 15.056 39.184C15.824 39.44 16.768 39.568 17.888 39.568C19.744 39.568 21.136 39.28 22.064 38.704C23.024 38.128 23.504 37.344 23.504 36.352C23.504 35.648 23.248 35.072 22.736 34.624C22.224 34.144 21.392 33.728 20.24 33.376C19.12 32.992 17.616 32.608 15.728 32.224C13.296 31.712 11.216 31.056 9.488 30.256C7.792 29.424 6.496 28.352 5.6 27.04C4.704 25.696 4.256 24.032 4.256 22.048C4.256 20.096 4.8 18.352 5.888 16.816C7.008 15.28 8.56 14.08 10.544 13.216C12.528 12.352 14.88 11.92 17.6 11.92C19.808 11.92 21.744 12.208 23.408 12.784C25.104 13.36 26.528 14.128 27.68 15.088C28.832 16.048 29.696 17.072 30.272 18.16C30.88 19.216 31.2 20.256 31.232 21.28C31.232 21.536 31.136 21.776 30.944 22C30.752 22.192 30.512 22.288 30.224 22.288H23.888C23.536 22.288 23.232 22.224 22.976 22.096C22.72 21.968 22.496 21.76 22.304 21.472C22.112 20.768 21.6 20.16 20.768 19.648C19.968 19.104 18.912 18.832 17.6 18.832C16.192 18.832 15.088 19.088 14.288 19.6C13.52 20.08 13.136 20.832 13.136 21.856C13.136 22.496 13.344 23.056 13.76 23.536C14.208 24.016 14.928 24.432 15.92 24.784C16.944 25.136 18.336 25.504 20.096 25.888C23.008 26.432 25.36 27.12 27.152 27.952C28.944 28.752 30.256 29.808 31.088 31.12C31.92 32.4 32.336 34.016 32.336 35.968C32.336 38.144 31.712 40.032 30.464 41.632C29.248 43.2 27.552 44.4 25.376 45.232C23.2 46.064 20.704 46.48 17.888 46.48ZM49.3813 46C47.3333 46 45.5573 45.68 44.0533 45.04C42.5813 44.368 41.4453 43.344 40.6453 41.968C39.8453 40.56 39.4453 38.752 39.4453 36.544V27.328H35.7013C35.3493 27.328 35.0453 27.216 34.7893 26.992C34.5653 26.768 34.4533 26.48 34.4533 26.128V22.24C34.4533 21.888 34.5653 21.6 34.7893 21.376C35.0453 21.152 35.3493 21.04 35.7013 21.04H39.4453V13.12C39.4453 12.768 39.5573 12.48 39.7812 12.256C40.0373 12.032 40.3253 11.92 40.6453 11.92H46.2133C46.5653 11.92 46.8533 12.032 47.0773 12.256C47.3013 12.48 47.4133 12.768 47.4133 13.12V21.04H53.4133C53.7653 21.04 54.0533 21.152 54.2773 21.376C54.5013 21.6 54.6133 21.888 54.6133 22.24V26.128C54.6133 26.48 54.5013 26.768 54.2773 26.992C54.0533 27.216 53.7653 27.328 53.4133 27.328H47.4133V35.872C47.4133 36.96 47.6213 37.824 48.0373 38.464C48.4533 39.104 49.1573 39.424 50.1493 39.424H53.8453C54.1973 39.424 54.4853 39.536 54.7093 39.76C54.9333 39.984 55.0453 40.272 55.0453 40.624V44.8C55.0453 45.152 54.9333 45.44 54.7093 45.664C54.4853 45.888 54.1973 46 53.8453 46H49.3813ZM70.8275 46.48C68.1395 46.48 65.8675 46.048 64.0115 45.184C62.1875 44.32 60.7795 43.088 59.7875 41.488C58.8275 39.856 58.2835 37.92 58.1555 35.68C58.1235 35.04 58.1075 34.32 58.1075 33.52C58.1075 32.688 58.1235 31.968 58.1555 31.36C58.2835 29.088 58.8595 27.152 59.8835 25.552C60.9075 23.952 62.3315 22.72 64.1555 21.856C66.0115 20.992 68.2355 20.56 70.8275 20.56C73.4515 20.56 75.6755 20.992 77.4995 21.856C79.3555 22.72 80.7955 23.952 81.8195 25.552C82.8435 27.152 83.4195 29.088 83.5475 31.36C83.5795 31.968 83.5955 32.688 83.5955 33.52C83.5955 34.32 83.5795 35.04 83.5475 35.68C83.4195 37.92 82.8595 39.856 81.8675 41.488C80.9075 43.088 79.4995 44.32 77.6435 45.184C75.8195 46.048 73.5475 46.48 70.8275 46.48ZM70.8275 40.624C72.2675 40.624 73.3075 40.192 73.9475 39.328C74.6195 38.464 75.0035 37.168 75.0995 35.44C75.1315 34.96 75.1475 34.32 75.1475 33.52C75.1475 32.72 75.1315 32.08 75.0995 31.6C75.0035 29.904 74.6195 28.624 73.9475 27.76C73.3075 26.864 72.2675 26.416 70.8275 26.416C69.4195 26.416 68.3795 26.864 67.7075 27.76C67.0355 28.624 66.6675 29.904 66.6035 31.6C66.5715 32.08 66.5555 32.72 66.5555 33.52C66.5555 34.32 66.5715 34.96 66.6035 35.44C66.6675 37.168 67.0355 38.464 67.7075 39.328C68.3795 40.192 69.4195 40.624 70.8275 40.624ZM89.5164 46C89.1644 46 88.8764 45.888 88.6524 45.664C88.4284 45.44 88.3164 45.152 88.3164 44.8V22.24C88.3164 21.888 88.4284 21.6 88.6524 21.376C88.8764 21.152 89.1644 21.04 89.5164 21.04H95.0364C95.3884 21.04 95.6764 21.152 95.9004 21.376C96.1244 21.6 96.2364 21.888 96.2364 22.24V24.064C97.0684 23.072 98.1564 22.24 99.5004 21.568C100.844 20.896 102.428 20.56 104.252 20.56C106.108 20.56 107.74 20.976 109.148 21.808C110.588 22.64 111.708 23.872 112.508 25.504C113.34 27.104 113.756 29.072 113.756 31.408V44.8C113.756 45.152 113.628 45.44 113.372 45.664C113.148 45.888 112.876 46 112.556 46H106.508C106.188 46 105.9 45.888 105.644 45.664C105.42 45.44 105.308 45.152 105.308 44.8V31.696C105.308 30.192 104.94 29.04 104.204 28.24C103.5 27.408 102.444 26.992 101.036 26.992C99.7244 26.992 98.6684 27.408 97.8684 28.24C97.1004 29.04 96.7164 30.192 96.7164 31.696V44.8C96.7164 45.152 96.5884 45.44 96.3324 45.664C96.1084 45.888 95.8364 46 95.5164 46H89.5164ZM130.633 46.48C126.857 46.48 123.849 45.456 121.609 43.408C119.369 41.36 118.201 38.32 118.105 34.288C118.105 34.064 118.105 33.776 118.105 33.424C118.105 33.072 118.105 32.8 118.105 32.608C118.201 30.08 118.761 27.92 119.785 26.128C120.841 24.304 122.281 22.928 124.105 22C125.961 21.04 128.121 20.56 130.585 20.56C133.401 20.56 135.721 21.12 137.545 22.24C139.401 23.36 140.793 24.88 141.721 26.8C142.649 28.72 143.113 30.912 143.113 33.376V34.528C143.113 34.88 142.985 35.168 142.729 35.392C142.505 35.616 142.233 35.728 141.913 35.728H126.553C126.553 35.76 126.553 35.808 126.553 35.872C126.553 35.936 126.553 36 126.553 36.064C126.585 36.992 126.745 37.84 127.033 38.608C127.321 39.376 127.769 39.984 128.377 40.432C128.985 40.88 129.721 41.104 130.585 41.104C131.225 41.104 131.753 41.008 132.169 40.816C132.617 40.592 132.985 40.352 133.273 40.096C133.561 39.808 133.785 39.568 133.945 39.376C134.233 39.056 134.457 38.864 134.617 38.8C134.809 38.704 135.097 38.656 135.481 38.656H141.433C141.753 38.656 142.009 38.752 142.201 38.944C142.425 39.104 142.521 39.344 142.489 39.664C142.457 40.208 142.185 40.864 141.673 41.632C141.161 42.4 140.409 43.168 139.417 43.936C138.457 44.672 137.241 45.28 135.769 45.76C134.297 46.24 132.585 46.48 130.633 46.48ZM126.553 30.976H134.665V30.88C134.665 29.856 134.505 28.96 134.185 28.192C133.897 27.424 133.433 26.832 132.793 26.416C132.185 26 131.449 25.792 130.585 25.792C129.721 25.792 128.985 26 128.377 26.416C127.801 26.832 127.353 27.424 127.033 28.192C126.713 28.96 126.553 29.856 126.553 30.88V30.976Z" fill="#506F8C"/>
<path d="M17.888 40.48C14.688 40.48 12.032 40.032 9.92 39.136C7.808 38.208 6.208 37.008 5.12 35.536C4.032 34.064 3.456 32.496 3.392 30.832C3.392 30.576 3.488 30.352 3.68 30.16C3.904 29.936 4.16 29.824 4.448 29.824H10.496C10.944 29.824 11.28 29.904 11.504 30.064C11.76 30.224 11.984 30.432 12.176 30.688C12.432 31.168 12.784 31.632 13.232 32.08C13.712 32.528 14.32 32.896 15.056 33.184C15.824 33.44 16.768 33.568 17.888 33.568C19.744 33.568 21.136 33.28 22.064 32.704C23.024 32.128 23.504 31.344 23.504 30.352C23.504 29.648 23.248 29.072 22.736 28.624C22.224 28.144 21.392 27.728 20.24 27.376C19.12 26.992 17.616 26.608 15.728 26.224C13.296 25.712 11.216 25.056 9.488 24.256C7.792 23.424 6.496 22.352 5.6 21.04C4.704 19.696 4.256 18.032 4.256 16.048C4.256 14.096 4.8 12.352 5.888 10.816C7.008 9.28 8.56 8.08 10.544 7.216C12.528 6.352 14.88 5.92 17.6 5.92C19.808 5.92 21.744 6.208 23.408 6.784C25.104 7.36 26.528 8.128 27.68 9.088C28.832 10.048 29.696 11.072 30.272 12.16C30.88 13.216 31.2 14.256 31.232 15.28C31.232 15.536 31.136 15.776 30.944 16C30.752 16.192 30.512 16.288 30.224 16.288H23.888C23.536 16.288 23.232 16.224 22.976 16.096C22.72 15.968 22.496 15.76 22.304 15.472C22.112 14.768 21.6 14.16 20.768 13.648C19.968 13.104 18.912 12.832 17.6 12.832C16.192 12.832 15.088 13.088 14.288 13.6C13.52 14.08 13.136 14.832 13.136 15.856C13.136 16.496 13.344 17.056 13.76 17.536C14.208 18.016 14.928 18.432 15.92 18.784C16.944 19.136 18.336 19.504 20.096 19.888C23.008 20.432 25.36 21.12 27.152 21.952C28.944 22.752 30.256 23.808 31.088 25.12C31.92 26.4 32.336 28.016 32.336 29.968C32.336 32.144 31.712 34.032 30.464 35.632C29.248 37.2 27.552 38.4 25.376 39.232C23.2 40.064 20.704 40.48 17.888 40.48ZM49.3813 40C47.3333 40 45.5573 39.68 44.0533 39.04C42.5813 38.368 41.4453 37.344 40.6453 35.968C39.8453 34.56 39.4453 32.752 39.4453 30.544V21.328H35.7013C35.3493 21.328 35.0453 21.216 34.7893 20.992C34.5653 20.768 34.4533 20.48 34.4533 20.128V16.24C34.4533 15.888 34.5653 15.6 34.7893 15.376C35.0453 15.152 35.3493 15.04 35.7013 15.04H39.4453V7.12C39.4453 6.768 39.5573 6.48 39.7812 6.256C40.0373 6.032 40.3253 5.92 40.6453 5.92H46.2133C46.5653 5.92 46.8533 6.032 47.0773 6.256C47.3013 6.48 47.4133 6.768 47.4133 7.12V15.04H53.4133C53.7653 15.04 54.0533 15.152 54.2773 15.376C54.5013 15.6 54.6133 15.888 54.6133 16.24V20.128C54.6133 20.48 54.5013 20.768 54.2773 20.992C54.0533 21.216 53.7653 21.328 53.4133 21.328H47.4133V29.872C47.4133 30.96 47.6213 31.824 48.0373 32.464C48.4533 33.104 49.1573 33.424 50.1493 33.424H53.8453C54.1973 33.424 54.4853 33.536 54.7093 33.76C54.9333 33.984 55.0453 34.272 55.0453 34.624V38.8C55.0453 39.152 54.9333 39.44 54.7093 39.664C54.4853 39.888 54.1973 40 53.8453 40H49.3813ZM70.8275 40.48C68.1395 40.48 65.8675 40.048 64.0115 39.184C62.1875 38.32 60.7795 37.088 59.7875 35.488C58.8275 33.856 58.2835 31.92 58.1555 29.68C58.1235 29.04 58.1075 28.32 58.1075 27.52C58.1075 26.688 58.1235 25.968 58.1555 25.36C58.2835 23.088 58.8595 21.152 59.8835 19.552C60.9075 17.952 62.3315 16.72 64.1555 15.856C66.0115 14.992 68.2355 14.56 70.8275 14.56C73.4515 14.56 75.6755 14.992 77.4995 15.856C79.3555 16.72 80.7955 17.952 81.8195 19.552C82.8435 21.152 83.4195 23.088 83.5475 25.36C83.5795 25.968 83.5955 26.688 83.5955 27.52C83.5955 28.32 83.5795 29.04 83.5475 29.68C83.4195 31.92 82.8595 33.856 81.8675 35.488C80.9075 37.088 79.4995 38.32 77.6435 39.184C75.8195 40.048 73.5475 40.48 70.8275 40.48ZM70.8275 34.624C72.2675 34.624 73.3075 34.192 73.9475 33.328C74.6195 32.464 75.0035 31.168 75.0995 29.44C75.1315 28.96 75.1475 28.32 75.1475 27.52C75.1475 26.72 75.1315 26.08 75.0995 25.6C75.0035 23.904 74.6195 22.624 73.9475 21.76C73.3075 20.864 72.2675 20.416 70.8275 20.416C69.4195 20.416 68.3795 20.864 67.7075 21.76C67.0355 22.624 66.6675 23.904 66.6035 25.6C66.5715 26.08 66.5555 26.72 66.5555 27.52C66.5555 28.32 66.5715 28.96 66.6035 29.44C66.6675 31.168 67.0355 32.464 67.7075 33.328C68.3795 34.192 69.4195 34.624 70.8275 34.624ZM89.5164 40C89.1644 40 88.8764 39.888 88.6524 39.664C88.4284 39.44 88.3164 39.152 88.3164 38.8V16.24C88.3164 15.888 88.4284 15.6 88.6524 15.376C88.8764 15.152 89.1644 15.04 89.5164 15.04H95.0364C95.3884 15.04 95.6764 15.152 95.9004 15.376C96.1244 15.6 96.2364 15.888 96.2364 16.24V18.064C97.0684 17.072 98.1564 16.24 99.5004 15.568C100.844 14.896 102.428 14.56 104.252 14.56C106.108 14.56 107.74 14.976 109.148 15.808C110.588 16.64 111.708 17.872 112.508 19.504C113.34 21.104 113.756 23.072 113.756 25.408V38.8C113.756 39.152 113.628 39.44 113.372 39.664C113.148 39.888 112.876 40 112.556 40H106.508C106.188 40 105.9 39.888 105.644 39.664C105.42 39.44 105.308 39.152 105.308 38.8V25.696C105.308 24.192 104.94 23.04 104.204 22.24C103.5 21.408 102.444 20.992 101.036 20.992C99.7244 20.992 98.6684 21.408 97.8684 22.24C97.1004 23.04 96.7164 24.192 96.7164 25.696V38.8C96.7164 39.152 96.5884 39.44 96.3324 39.664C96.1084 39.888 95.8364 40 95.5164 40H89.5164ZM130.633 40.48C126.857 40.48 123.849 39.456 121.609 37.408C119.369 35.36 118.201 32.32 118.105 28.288C118.105 28.064 118.105 27.776 118.105 27.424C118.105 27.072 118.105 26.8 118.105 26.608C118.201 24.08 118.761 21.92 119.785 20.128C120.841 18.304 122.281 16.928 124.105 16C125.961 15.04 128.121 14.56 130.585 14.56C133.401 14.56 135.721 15.12 137.545 16.24C139.401 17.36 140.793 18.88 141.721 20.8C142.649 22.72 143.113 24.912 143.113 27.376V28.528C143.113 28.88 142.985 29.168 142.729 29.392C142.505 29.616 142.233 29.728 141.913 29.728H126.553C126.553 29.76 126.553 29.808 126.553 29.872C126.553 29.936 126.553 30 126.553 30.064C126.585 30.992 126.745 31.84 127.033 32.608C127.321 33.376 127.769 33.984 128.377 34.432C128.985 34.88 129.721 35.104 130.585 35.104C131.225 35.104 131.753 35.008 132.169 34.816C132.617 34.592 132.985 34.352 133.273 34.096C133.561 33.808 133.785 33.568 133.945 33.376C134.233 33.056 134.457 32.864 134.617 32.8C134.809 32.704 135.097 32.656 135.481 32.656H141.433C141.753 32.656 142.009 32.752 142.201 32.944C142.425 33.104 142.521 33.344 142.489 33.664C142.457 34.208 142.185 34.864 141.673 35.632C141.161 36.4 140.409 37.168 139.417 37.936C138.457 38.672 137.241 39.28 135.769 39.76C134.297 40.24 132.585 40.48 130.633 40.48ZM126.553 24.976H134.665V24.88C134.665 23.856 134.505 22.96 134.185 22.192C133.897 21.424 133.433 20.832 132.793 20.416C132.185 20 131.449 19.792 130.585 19.792C129.721 19.792 128.985 20 128.377 20.416C127.801 20.832 127.353 21.424 127.033 22.192C126.713 22.96 126.553 23.856 126.553 24.88V24.976Z" fill="#6284A4"/>
<path d="M20.888 43.48C17.688 43.48 15.032 43.032 12.92 42.136C10.808 41.208 9.208 40.008 8.12 38.536C7.032 37.064 6.456 35.496 6.392 33.832C6.392 33.576 6.488 33.352 6.68 33.16C6.904 32.936 7.16 32.824 7.448 32.824H13.496C13.944 32.824 14.28 32.904 14.504 33.064C14.76 33.224 14.984 33.432 15.176 33.688C15.432 34.168 15.784 34.632 16.232 35.08C16.712 35.528 17.32 35.896 18.056 36.184C18.824 36.44 19.768 36.568 20.888 36.568C22.744 36.568 24.136 36.28 25.064 35.704C26.024 35.128 26.504 34.344 26.504 33.352C26.504 32.648 26.248 32.072 25.736 31.624C25.224 31.144 24.392 30.728 23.24 30.376C22.12 29.992 20.616 29.608 18.728 29.224C16.296 28.712 14.216 28.056 12.488 27.256C10.792 26.424 9.496 25.352 8.6 24.04C7.704 22.696 7.256 21.032 7.256 19.048C7.256 17.096 7.8 15.352 8.888 13.816C10.008 12.28 11.56 11.08 13.544 10.216C15.528 9.352 17.88 8.92 20.6 8.92C22.808 8.92 24.744 9.208 26.408 9.784C28.104 10.36 29.528 11.128 30.68 12.088C31.832 13.048 32.696 14.072 33.272 15.16C33.88 16.216 34.2 17.256 34.232 18.28C34.232 18.536 34.136 18.776 33.944 19C33.752 19.192 33.512 19.288 33.224 19.288H26.888C26.536 19.288 26.232 19.224 25.976 19.096C25.72 18.968 25.496 18.76 25.304 18.472C25.112 17.768 24.6 17.16 23.768 16.648C22.968 16.104 21.912 15.832 20.6 15.832C19.192 15.832 18.088 16.088 17.288 16.6C16.52 17.08 16.136 17.832 16.136 18.856C16.136 19.496 16.344 20.056 16.76 20.536C17.208 21.016 17.928 21.432 18.92 21.784C19.944 22.136 21.336 22.504 23.096 22.888C26.008 23.432 28.36 24.12 30.152 24.952C31.944 25.752 33.256 26.808 34.088 28.12C34.92 29.4 35.336 31.016 35.336 32.968C35.336 35.144 34.712 37.032 33.464 38.632C32.248 40.2 30.552 41.4 28.376 42.232C26.2 43.064 23.704 43.48 20.888 43.48ZM52.3813 43C50.3333 43 48.5573 42.68 47.0533 42.04C45.5813 41.368 44.4453 40.344 43.6453 38.968C42.8453 37.56 42.4453 35.752 42.4453 33.544V24.328H38.7013C38.3493 24.328 38.0453 24.216 37.7893 23.992C37.5653 23.768 37.4533 23.48 37.4533 23.128V19.24C37.4533 18.888 37.5653 18.6 37.7893 18.376C38.0453 18.152 38.3493 18.04 38.7013 18.04H42.4453V10.12C42.4453 9.768 42.5573 9.48 42.7812 9.256C43.0373 9.032 43.3253 8.92 43.6453 8.92H49.2133C49.5653 8.92 49.8533 9.032 50.0773 9.256C50.3013 9.48 50.4133 9.768 50.4133 10.12V18.04H56.4133C56.7653 18.04 57.0533 18.152 57.2773 18.376C57.5013 18.6 57.6133 18.888 57.6133 19.24V23.128C57.6133 23.48 57.5013 23.768 57.2773 23.992C57.0533 24.216 56.7653 24.328 56.4133 24.328H50.4133V32.872C50.4133 33.96 50.6213 34.824 51.0373 35.464C51.4533 36.104 52.1573 36.424 53.1493 36.424H56.8453C57.1973 36.424 57.4853 36.536 57.7093 36.76C57.9333 36.984 58.0453 37.272 58.0453 37.624V41.8C58.0453 42.152 57.9333 42.44 57.7093 42.664C57.4853 42.888 57.1973 43 56.8453 43H52.3813ZM73.8275 43.48C71.1395 43.48 68.8675 43.048 67.0115 42.184C65.1875 41.32 63.7795 40.088 62.7875 38.488C61.8275 36.856 61.2835 34.92 61.1555 32.68C61.1235 32.04 61.1075 31.32 61.1075 30.52C61.1075 29.688 61.1235 28.968 61.1555 28.36C61.2835 26.088 61.8595 24.152 62.8835 22.552C63.9075 20.952 65.3315 19.72 67.1555 18.856C69.0115 17.992 71.2355 17.56 73.8275 17.56C76.4515 17.56 78.6755 17.992 80.4995 18.856C82.3555 19.72 83.7955 20.952 84.8195 22.552C85.8435 24.152 86.4195 26.088 86.5475 28.36C86.5795 28.968 86.5955 29.688 86.5955 30.52C86.5955 31.32 86.5795 32.04 86.5475 32.68C86.4195 34.92 85.8595 36.856 84.8675 38.488C83.9075 40.088 82.4995 41.32 80.6435 42.184C78.8195 43.048 76.5475 43.48 73.8275 43.48ZM73.8275 37.624C75.2675 37.624 76.3075 37.192 76.9475 36.328C77.6195 35.464 78.0035 34.168 78.0995 32.44C78.1315 31.96 78.1475 31.32 78.1475 30.52C78.1475 29.72 78.1315 29.08 78.0995 28.6C78.0035 26.904 77.6195 25.624 76.9475 24.76C76.3075 23.864 75.2675 23.416 73.8275 23.416C72.4195 23.416 71.3795 23.864 70.7075 24.76C70.0355 25.624 69.6675 26.904 69.6035 28.6C69.5715 29.08 69.5555 29.72 69.5555 30.52C69.5555 31.32 69.5715 31.96 69.6035 32.44C69.6675 34.168 70.0355 35.464 70.7075 36.328C71.3795 37.192 72.4195 37.624 73.8275 37.624ZM92.5164 43C92.1644 43 91.8764 42.888 91.6524 42.664C91.4284 42.44 91.3164 42.152 91.3164 41.8V19.24C91.3164 18.888 91.4284 18.6 91.6524 18.376C91.8764 18.152 92.1644 18.04 92.5164 18.04H98.0364C98.3884 18.04 98.6764 18.152 98.9004 18.376C99.1244 18.6 99.2364 18.888 99.2364 19.24V21.064C100.068 20.072 101.156 19.24 102.5 18.568C103.844 17.896 105.428 17.56 107.252 17.56C109.108 17.56 110.74 17.976 112.148 18.808C113.588 19.64 114.708 20.872 115.508 22.504C116.34 24.104 116.756 26.072 116.756 28.408V41.8C116.756 42.152 116.628 42.44 116.372 42.664C116.148 42.888 115.876 43 115.556 43H109.508C109.188 43 108.9 42.888 108.644 42.664C108.42 42.44 108.308 42.152 108.308 41.8V28.696C108.308 27.192 107.94 26.04 107.204 25.24C106.5 24.408 105.444 23.992 104.036 23.992C102.724 23.992 101.668 24.408 100.868 25.24C100.1 26.04 99.7164 27.192 99.7164 28.696V41.8C99.7164 42.152 99.5884 42.44 99.3324 42.664C99.1084 42.888 98.8364 43 98.5164 43H92.5164ZM133.633 43.48C129.857 43.48 126.849 42.456 124.609 40.408C122.369 38.36 121.201 35.32 121.105 31.288C121.105 31.064 121.105 30.776 121.105 30.424C121.105 30.072 121.105 29.8 121.105 29.608C121.201 27.08 121.761 24.92 122.785 23.128C123.841 21.304 125.281 19.928 127.105 19C128.961 18.04 131.121 17.56 133.585 17.56C136.401 17.56 138.721 18.12 140.545 19.24C142.401 20.36 143.793 21.88 144.721 23.8C145.649 25.72 146.113 27.912 146.113 30.376V31.528C146.113 31.88 145.985 32.168 145.729 32.392C145.505 32.616 145.233 32.728 144.913 32.728H129.553C129.553 32.76 129.553 32.808 129.553 32.872C129.553 32.936 129.553 33 129.553 33.064C129.585 33.992 129.745 34.84 130.033 35.608C130.321 36.376 130.769 36.984 131.377 37.432C131.985 37.88 132.721 38.104 133.585 38.104C134.225 38.104 134.753 38.008 135.169 37.816C135.617 37.592 135.985 37.352 136.273 37.096C136.561 36.808 136.785 36.568 136.945 36.376C137.233 36.056 137.457 35.864 137.617 35.8C137.809 35.704 138.097 35.656 138.481 35.656H144.433C144.753 35.656 145.009 35.752 145.201 35.944C145.425 36.104 145.521 36.344 145.489 36.664C145.457 37.208 145.185 37.864 144.673 38.632C144.161 39.4 143.409 40.168 142.417 40.936C141.457 41.672 140.241 42.28 138.769 42.76C137.297 43.24 135.585 43.48 133.633 43.48ZM129.553 27.976H137.665V27.88C137.665 26.856 137.505 25.96 137.185 25.192C136.897 24.424 136.433 23.832 135.793 23.416C135.185 23 134.449 22.792 133.585 22.792C132.721 22.792 131.985 23 131.377 23.416C130.801 23.832 130.353 24.424 130.033 25.192C129.713 25.96 129.553 26.856 129.553 27.88V27.976Z" fill="#6284A4"/>
<path d="M17.888 43.48C14.688 43.48 12.032 43.032 9.92 42.136C7.808 41.208 6.208 40.008 5.12 38.536C4.032 37.064 3.456 35.496 3.392 33.832C3.392 33.576 3.488 33.352 3.68 33.16C3.904 32.936 4.16 32.824 4.448 32.824H10.496C10.944 32.824 11.28 32.904 11.504 33.064C11.76 33.224 11.984 33.432 12.176 33.688C12.432 34.168 12.784 34.632 13.232 35.08C13.712 35.528 14.32 35.896 15.056 36.184C15.824 36.44 16.768 36.568 17.888 36.568C19.744 36.568 21.136 36.28 22.064 35.704C23.024 35.128 23.504 34.344 23.504 33.352C23.504 32.648 23.248 32.072 22.736 31.624C22.224 31.144 21.392 30.728 20.24 30.376C19.12 29.992 17.616 29.608 15.728 29.224C13.296 28.712 11.216 28.056 9.488 27.256C7.792 26.424 6.496 25.352 5.6 24.04C4.704 22.696 4.256 21.032 4.256 19.048C4.256 17.096 4.8 15.352 5.888 13.816C7.008 12.28 8.56 11.08 10.544 10.216C12.528 9.352 14.88 8.92 17.6 8.92C19.808 8.92 21.744 9.208 23.408 9.784C25.104 10.36 26.528 11.128 27.68 12.088C28.832 13.048 29.696 14.072 30.272 15.16C30.88 16.216 31.2 17.256 31.232 18.28C31.232 18.536 31.136 18.776 30.944 19C30.752 19.192 30.512 19.288 30.224 19.288H23.888C23.536 19.288 23.232 19.224 22.976 19.096C22.72 18.968 22.496 18.76 22.304 18.472C22.112 17.768 21.6 17.16 20.768 16.648C19.968 16.104 18.912 15.832 17.6 15.832C16.192 15.832 15.088 16.088 14.288 16.6C13.52 17.08 13.136 17.832 13.136 18.856C13.136 19.496 13.344 20.056 13.76 20.536C14.208 21.016 14.928 21.432 15.92 21.784C16.944 22.136 18.336 22.504 20.096 22.888C23.008 23.432 25.36 24.12 27.152 24.952C28.944 25.752 30.256 26.808 31.088 28.12C31.92 29.4 32.336 31.016 32.336 32.968C32.336 35.144 31.712 37.032 30.464 38.632C29.248 40.2 27.552 41.4 25.376 42.232C23.2 43.064 20.704 43.48 17.888 43.48ZM49.3813 43C47.3333 43 45.5573 42.68 44.0533 42.04C42.5813 41.368 41.4453 40.344 40.6453 38.968C39.8453 37.56 39.4453 35.752 39.4453 33.544V24.328H35.7013C35.3493 24.328 35.0453 24.216 34.7893 23.992C34.5653 23.768 34.4533 23.48 34.4533 23.128V19.24C34.4533 18.888 34.5653 18.6 34.7893 18.376C35.0453 18.152 35.3493 18.04 35.7013 18.04H39.4453V10.12C39.4453 9.768 39.5573 9.48 39.7812 9.256C40.0373 9.032 40.3253 8.92 40.6453 8.92H46.2133C46.5653 8.92 46.8533 9.032 47.0773 9.256C47.3013 9.48 47.4133 9.768 47.4133 10.12V18.04H53.4133C53.7653 18.04 54.0533 18.152 54.2773 18.376C54.5013 18.6 54.6133 18.888 54.6133 19.24V23.128C54.6133 23.48 54.5013 23.768 54.2773 23.992C54.0533 24.216 53.7653 24.328 53.4133 24.328H47.4133V32.872C47.4133 33.96 47.6213 34.824 48.0373 35.464C48.4533 36.104 49.1573 36.424 50.1493 36.424H53.8453C54.1973 36.424 54.4853 36.536 54.7093 36.76C54.9333 36.984 55.0453 37.272 55.0453 37.624V41.8C55.0453 42.152 54.9333 42.44 54.7093 42.664C54.4853 42.888 54.1973 43 53.8453 43H49.3813ZM70.8275 43.48C68.1395 43.48 65.8675 43.048 64.0115 42.184C62.1875 41.32 60.7795 40.088 59.7875 38.488C58.8275 36.856 58.2835 34.92 58.1555 32.68C58.1235 32.04 58.1075 31.32 58.1075 30.52C58.1075 29.688 58.1235 28.968 58.1555 28.36C58.2835 26.088 58.8595 24.152 59.8835 22.552C60.9075 20.952 62.3315 19.72 64.1555 18.856C66.0115 17.992 68.2355 17.56 70.8275 17.56C73.4515 17.56 75.6755 17.992 77.4995 18.856C79.3555 19.72 80.7955 20.952 81.8195 22.552C82.8435 24.152 83.4195 26.088 83.5475 28.36C83.5795 28.968 83.5955 29.688 83.5955 30.52C83.5955 31.32 83.5795 32.04 83.5475 32.68C83.4195 34.92 82.8595 36.856 81.8675 38.488C80.9075 40.088 79.4995 41.32 77.6435 42.184C75.8195 43.048 73.5475 43.48 70.8275 43.48ZM70.8275 37.624C72.2675 37.624 73.3075 37.192 73.9475 36.328C74.6195 35.464 75.0035 34.168 75.0995 32.44C75.1315 31.96 75.1475 31.32 75.1475 30.52C75.1475 29.72 75.1315 29.08 75.0995 28.6C75.0035 26.904 74.6195 25.624 73.9475 24.76C73.3075 23.864 72.2675 23.416 70.8275 23.416C69.4195 23.416 68.3795 23.864 67.7075 24.76C67.0355 25.624 66.6675 26.904 66.6035 28.6C66.5715 29.08 66.5555 29.72 66.5555 30.52C66.5555 31.32 66.5715 31.96 66.6035 32.44C66.6675 34.168 67.0355 35.464 67.7075 36.328C68.3795 37.192 69.4195 37.624 70.8275 37.624ZM89.5164 43C89.1644 43 88.8764 42.888 88.6524 42.664C88.4284 42.44 88.3164 42.152 88.3164 41.8V19.24C88.3164 18.888 88.4284 18.6 88.6524 18.376C88.8764 18.152 89.1644 18.04 89.5164 18.04H95.0364C95.3884 18.04 95.6764 18.152 95.9004 18.376C96.1244 18.6 96.2364 18.888 96.2364 19.24V21.064C97.0684 20.072 98.1564 19.24 99.5004 18.568C100.844 17.896 102.428 17.56 104.252 17.56C106.108 17.56 107.74 17.976 109.148 18.808C110.588 19.64 111.708 20.872 112.508 22.504C113.34 24.104 113.756 26.072 113.756 28.408V41.8C113.756 42.152 113.628 42.44 113.372 42.664C113.148 42.888 112.876 43 112.556 43H106.508C106.188 43 105.9 42.888 105.644 42.664C105.42 42.44 105.308 42.152 105.308 41.8V28.696C105.308 27.192 104.94 26.04 104.204 25.24C103.5 24.408 102.444 23.992 101.036 23.992C99.7244 23.992 98.6684 24.408 97.8684 25.24C97.1004 26.04 96.7164 27.192 96.7164 28.696V41.8C96.7164 42.152 96.5884 42.44 96.3324 42.664C96.1084 42.888 95.8364 43 95.5164 43H89.5164ZM130.633 43.48C126.857 43.48 123.849 42.456 121.609 40.408C119.369 38.36 118.201 35.32 118.105 31.288C118.105 31.064 118.105 30.776 118.105 30.424C118.105 30.072 118.105 29.8 118.105 29.608C118.201 27.08 118.761 24.92 119.785 23.128C120.841 21.304 122.281 19.928 124.105 19C125.961 18.04 128.121 17.56 130.585 17.56C133.401 17.56 135.721 18.12 137.545 19.24C139.401 20.36 140.793 21.88 141.721 23.8C142.649 25.72 143.113 27.912 143.113 30.376V31.528C143.113 31.88 142.985 32.168 142.729 32.392C142.505 32.616 142.233 32.728 141.913 32.728H126.553C126.553 32.76 126.553 32.808 126.553 32.872C126.553 32.936 126.553 33 126.553 33.064C126.585 33.992 126.745 34.84 127.033 35.608C127.321 36.376 127.769 36.984 128.377 37.432C128.985 37.88 129.721 38.104 130.585 38.104C131.225 38.104 131.753 38.008 132.169 37.816C132.617 37.592 132.985 37.352 133.273 37.096C133.561 36.808 133.785 36.568 133.945 36.376C134.233 36.056 134.457 35.864 134.617 35.8C134.809 35.704 135.097 35.656 135.481 35.656H141.433C141.753 35.656 142.009 35.752 142.201 35.944C142.425 36.104 142.521 36.344 142.489 36.664C142.457 37.208 142.185 37.864 141.673 38.632C141.161 39.4 140.409 40.168 139.417 40.936C138.457 41.672 137.241 42.28 135.769 42.76C134.297 43.24 132.585 43.48 130.633 43.48ZM126.553 27.976H134.665V27.88C134.665 26.856 134.505 25.96 134.185 25.192C133.897 24.424 133.433 23.832 132.793 23.416C132.185 23 131.449 22.792 130.585 22.792C129.721 22.792 128.985 23 128.377 23.416C127.801 23.832 127.353 24.424 127.033 25.192C126.713 25.96 126.553 26.856 126.553 27.88V27.976Z" fill="#222222"/>
<path d="M5.71 64C5.59 64 5.482 63.958 5.386 63.874C5.302 63.79 5.26 63.682 5.26 63.55V51.85C5.26 51.718 5.302 51.61 5.386 51.526C5.482 51.442 5.59 51.4 5.71 51.4H7.654C7.846 51.4 7.99 51.454 8.086 51.562C8.194 51.658 8.26 51.736 8.284 51.796L11.452 57.484L14.62 51.796C14.656 51.736 14.716 51.658 14.8 51.562C14.896 51.454 15.046 51.4 15.25 51.4H17.176C17.308 51.4 17.416 51.442 17.5 51.526C17.596 51.61 17.644 51.718 17.644 51.85V63.55C17.644 63.682 17.596 63.79 17.5 63.874C17.416 63.958 17.308 64 17.176 64H15.034C14.902 64 14.788 63.958 14.692 63.874C14.608 63.79 14.566 63.682 14.566 63.55V56.8L12.532 60.562C12.484 60.67 12.412 60.766 12.316 60.85C12.22 60.934 12.088 60.976 11.92 60.976H10.984C10.816 60.976 10.684 60.934 10.588 60.85C10.492 60.766 10.414 60.67 10.354 60.562L8.32 56.8V63.55C8.32 63.682 8.278 63.79 8.194 63.874C8.11 63.958 8.002 64 7.87 64H5.71ZM37.8787 64.18C37.2307 64.18 36.6487 64.06 36.1327 63.82C35.6287 63.568 35.2267 63.232 34.9267 62.812C34.6267 62.392 34.4767 61.918 34.4767 61.39C34.4767 60.538 34.8247 59.866 35.5207 59.374C36.2167 58.87 37.1407 58.528 38.2927 58.348L40.5427 58.006V57.754C40.5427 57.322 40.4527 56.992 40.2727 56.764C40.0927 56.536 39.7627 56.422 39.2827 56.422C38.9467 56.422 38.6707 56.488 38.4547 56.62C38.2507 56.752 38.0887 56.932 37.9687 57.16C37.8607 57.316 37.7107 57.394 37.5187 57.394H35.5027C35.3707 57.394 35.2687 57.358 35.1967 57.286C35.1247 57.202 35.0947 57.106 35.1067 56.998C35.1067 56.782 35.1847 56.536 35.3407 56.26C35.5087 55.972 35.7607 55.69 36.0967 55.414C36.4327 55.138 36.8647 54.91 37.3927 54.73C37.9207 54.55 38.5567 54.46 39.3007 54.46C40.0807 54.46 40.7467 54.55 41.2987 54.73C41.8507 54.91 42.2947 55.162 42.6307 55.486C42.9787 55.81 43.2367 56.194 43.4047 56.638C43.5727 57.07 43.6567 57.55 43.6567 58.078V63.55C43.6567 63.682 43.6087 63.79 43.5127 63.874C43.4287 63.958 43.3267 64 43.2067 64H41.1187C40.9867 64 40.8787 63.958 40.7947 63.874C40.7107 63.79 40.6687 63.682 40.6687 63.55V62.92C40.5127 63.148 40.3027 63.358 40.0387 63.55C39.7747 63.742 39.4627 63.892 39.1027 64C38.7547 64.12 38.3467 64.18 37.8787 64.18ZM38.7247 62.128C39.0727 62.128 39.3847 62.056 39.6607 61.912C39.9487 61.756 40.1707 61.522 40.3267 61.21C40.4947 60.886 40.5787 60.484 40.5787 60.004V59.752L39.0487 60.022C38.4847 60.118 38.0707 60.268 37.8067 60.472C37.5547 60.664 37.4287 60.892 37.4287 61.156C37.4287 61.36 37.4887 61.534 37.6087 61.678C37.7287 61.822 37.8847 61.936 38.0767 62.02C38.2687 62.092 38.4847 62.128 38.7247 62.128ZM61.2579 64C61.1259 64 61.0179 63.958 60.9339 63.874C60.8499 63.79 60.8079 63.682 60.8079 63.55V55.09C60.8079 54.97 60.8499 54.868 60.9339 54.784C61.0179 54.688 61.1259 54.64 61.2579 54.64H63.3279C63.4599 54.64 63.5679 54.688 63.6519 54.784C63.7359 54.868 63.7779 54.97 63.7779 55.09V55.81C64.1019 55.438 64.4859 55.15 64.9299 54.946C65.3859 54.742 65.8959 54.64 66.4599 54.64H67.2519C67.3719 54.64 67.4739 54.682 67.5579 54.766C67.6539 54.85 67.7019 54.958 67.7019 55.09V56.944C67.7019 57.064 67.6539 57.172 67.5579 57.268C67.4739 57.352 67.3719 57.394 67.2519 57.394H65.5059C65.0139 57.394 64.6299 57.532 64.3539 57.808C64.0899 58.072 63.9579 58.45 63.9579 58.942V63.55C63.9579 63.682 63.9099 63.79 63.8139 63.874C63.7299 63.958 63.6219 64 63.4899 64H61.2579ZM84.5517 64C84.4197 64 84.3117 63.958 84.2277 63.874C84.1437 63.79 84.1017 63.682 84.1017 63.55V51.67C84.1017 51.538 84.1437 51.43 84.2277 51.346C84.3117 51.262 84.4197 51.22 84.5517 51.22H86.6397C86.7597 51.22 86.8617 51.262 86.9457 51.346C87.0417 51.43 87.0897 51.538 87.0897 51.67V57.7L89.5917 54.946C89.6637 54.862 89.7417 54.79 89.8257 54.73C89.9097 54.67 90.0297 54.64 90.1857 54.64H92.5977C92.7057 54.64 92.7957 54.682 92.8677 54.766C92.9517 54.838 92.9937 54.928 92.9937 55.036C92.9937 55.084 92.9817 55.138 92.9577 55.198C92.9337 55.258 92.8977 55.306 92.8497 55.342L89.6097 58.834L93.2997 63.316C93.3957 63.412 93.4437 63.508 93.4437 63.604C93.4437 63.712 93.4017 63.808 93.3177 63.892C93.2457 63.964 93.1497 64 93.0297 64H90.5637C90.3837 64 90.2517 63.97 90.1677 63.91C90.0837 63.838 90.0057 63.766 89.9337 63.694L87.0897 60.274V63.55C87.0897 63.682 87.0417 63.79 86.9457 63.874C86.8617 63.958 86.7597 64 86.6397 64H84.5517ZM113.632 64.18C112.216 64.18 111.088 63.796 110.248 63.028C109.408 62.26 108.97 61.12 108.934 59.608C108.934 59.524 108.934 59.416 108.934 59.284C108.934 59.152 108.934 59.05 108.934 58.978C108.97 58.03 109.18 57.22 109.564 56.548C109.96 55.864 110.5 55.348 111.184 55C111.88 54.64 112.69 54.46 113.614 54.46C114.67 54.46 115.54 54.67 116.224 55.09C116.92 55.51 117.442 56.08 117.79 56.8C118.138 57.52 118.312 58.342 118.312 59.266V59.698C118.312 59.83 118.264 59.938 118.168 60.022C118.084 60.106 117.982 60.148 117.862 60.148H112.102C112.102 60.16 112.102 60.178 112.102 60.202C112.102 60.226 112.102 60.25 112.102 60.274C112.114 60.622 112.174 60.94 112.282 61.228C112.39 61.516 112.558 61.744 112.786 61.912C113.014 62.08 113.29 62.164 113.614 62.164C113.854 62.164 114.052 62.128 114.208 62.056C114.376 61.972 114.514 61.882 114.622 61.786C114.73 61.678 114.814 61.588 114.874 61.516C114.982 61.396 115.066 61.324 115.126 61.3C115.198 61.264 115.306 61.246 115.45 61.246H117.682C117.802 61.246 117.898 61.282 117.97 61.354C118.054 61.414 118.09 61.504 118.078 61.624C118.066 61.828 117.964 62.074 117.772 62.362C117.58 62.65 117.298 62.938 116.926 63.226C116.566 63.502 116.11 63.73 115.558 63.91C115.006 64.09 114.364 64.18 113.632 64.18ZM112.102 58.366H115.144V58.33C115.144 57.946 115.084 57.61 114.964 57.322C114.856 57.034 114.682 56.812 114.442 56.656C114.214 56.5 113.938 56.422 113.614 56.422C113.29 56.422 113.014 56.5 112.786 56.656C112.57 56.812 112.402 57.034 112.282 57.322C112.162 57.61 112.102 57.946 112.102 58.33V58.366ZM139.889 64C139.121 64 138.455 63.88 137.891 63.64C137.339 63.388 136.913 63.004 136.613 62.488C136.313 61.96 136.163 61.282 136.163 60.454V56.998H134.759C134.627 56.998 134.513 56.956 134.417 56.872C134.333 56.788 134.291 56.68 134.291 56.548V55.09C134.291 54.958 134.333 54.85 134.417 54.766C134.513 54.682 134.627 54.64 134.759 54.64H136.163V51.67C136.163 51.538 136.205 51.43 136.289 51.346C136.385 51.262 136.493 51.22 136.613 51.22H138.701C138.833 51.22 138.941 51.262 139.025 51.346C139.109 51.43 139.151 51.538 139.151 51.67V54.64H141.401C141.533 54.64 141.641 54.682 141.725 54.766C141.809 54.85 141.851 54.958 141.851 55.09V56.548C141.851 56.68 141.809 56.788 141.725 56.872C141.641 56.956 141.533 56.998 141.401 56.998H139.151V60.202C139.151 60.61 139.229 60.934 139.385 61.174C139.541 61.414 139.805 61.534 140.177 61.534H141.563C141.695 61.534 141.803 61.576 141.887 61.66C141.971 61.744 142.013 61.852 142.013 61.984V63.55C142.013 63.682 141.971 63.79 141.887 63.874C141.803 63.958 141.695 64 141.563 64H139.889Z" fill="#777777"/>
</svg>
