<svg width="16" height="16" viewBox="0 0 16 16" fill="none" xmlns="http://www.w3.org/2000/svg">
<rect width="16" height="16" rx="3" fill="#424F64"/>
<path d="M4.15253 11.8994V5.72434H2V4.55771H7.72507V5.72434H5.57253V11.8994H4.15253Z" fill="#2F3542"/>
<path d="M10.5156 12C9.95209 12 9.46373 11.9162 9.0505 11.7486C8.63728 11.581 8.31796 11.3429 8.09257 11.0345C7.87468 10.7194 7.76199 10.3506 7.75447 9.92823H9.1632C9.1632 10.2299 9.28341 10.468 9.52383 10.6423C9.77177 10.8099 10.1061 10.8937 10.5268 10.8937C10.9326 10.8937 11.2481 10.8099 11.4735 10.6423C11.7064 10.4747 11.8229 10.2434 11.8229 9.94834C11.8229 9.70027 11.7402 9.48571 11.5749 9.30469C11.4172 9.11695 11.188 8.98956 10.8875 8.92251L9.94082 8.6912C9.29468 8.5437 8.79505 8.27886 8.44193 7.89669C8.09632 7.51451 7.92352 7.05189 7.92352 6.5088C7.92352 6.0931 8.02871 5.73105 8.23908 5.42263C8.44945 5.11421 8.74622 4.87619 9.12939 4.70857C9.52008 4.54095 9.97838 4.45714 10.5043 4.45714C11.3007 4.45714 11.9318 4.64152 12.3976 5.01029C12.8635 5.37234 13.1001 5.86179 13.1076 6.47863H11.6989C11.6989 6.19032 11.5937 5.96571 11.3834 5.8048C11.173 5.63718 10.8762 5.55337 10.493 5.55337C10.1249 5.55337 9.83939 5.63048 9.63653 5.78469C9.43368 5.93889 9.33225 6.1568 9.33225 6.4384C9.33225 6.69318 9.40738 6.91109 9.55764 7.09211C9.71542 7.26644 9.94082 7.39048 10.2338 7.46423L11.2143 7.7056C11.868 7.8531 12.3676 8.11794 12.7132 8.50011C13.0588 8.87558 13.2316 9.34156 13.2316 9.89806C13.2316 10.3138 13.1189 10.6825 12.8935 11.0043C12.6681 11.3195 12.3526 11.5642 11.9468 11.7385C11.5411 11.9128 11.064 12 10.5156 12Z" fill="#2F3542"/>
<path d="M4.92093 11.4423V5.2672H2.7684V4.10057H8.49346V5.2672H6.34093V11.4423H4.92093Z" fill="#57606F"/>
<path d="M11.284 11.5429C10.7205 11.5429 10.2321 11.459 9.8189 11.2914C9.40567 11.1238 9.08636 10.8858 8.86096 10.5774C8.64308 10.2622 8.53038 9.89349 8.52287 9.47109H9.9316C9.9316 9.7728 10.0518 10.0108 10.2922 10.1851C10.5402 10.3528 10.8745 10.4366 11.2952 10.4366C11.701 10.4366 12.0165 10.3528 12.2419 10.1851C12.4748 10.0175 12.5913 9.78621 12.5913 9.4912C12.5913 9.24312 12.5086 9.02857 12.3433 8.84754C12.1856 8.65981 11.9564 8.53242 11.6559 8.46537L10.7092 8.23406C10.0631 8.08655 9.56345 7.82171 9.21033 7.43954C8.86472 7.05737 8.69192 6.59474 8.69192 6.05166C8.69192 5.63596 8.7971 5.2739 9.00747 4.96549C9.21784 4.65707 9.51461 4.41905 9.89779 4.25143C10.2885 4.08381 10.7468 4 11.2727 4C12.0691 4 12.7002 4.18438 13.166 4.55314C13.6319 4.9152 13.8685 5.40465 13.876 6.02149H12.4673C12.4673 5.73318 12.3621 5.50857 12.1517 5.34766C11.9414 5.18004 11.6446 5.09623 11.2614 5.09623C10.8933 5.09623 10.6078 5.17333 10.4049 5.32754C10.2021 5.48175 10.1006 5.69966 10.1006 5.98126C10.1006 6.23604 10.1758 6.45394 10.326 6.63497C10.4838 6.8093 10.7092 6.93333 11.0022 7.00709L11.9827 7.24846C12.6364 7.39596 13.136 7.6608 13.4816 8.04297C13.8272 8.41844 14 8.88442 14 9.44091C14 9.85661 13.8873 10.2254 13.6619 10.5472C13.4365 10.8623 13.121 11.107 12.7152 11.2814C12.3095 11.4557 11.8324 11.5429 11.284 11.5429Z" fill="#57606F"/>
<path d="M4.15253 11.4423V5.2672H2V4.10057H7.72507V5.2672H5.57253V11.4423H4.15253Z" fill="#A4B0BE"/>
<path d="M10.5156 11.5429C9.95209 11.5429 9.46373 11.459 9.0505 11.2914C8.63728 11.1238 8.31796 10.8858 8.09257 10.5774C7.87468 10.2622 7.76199 9.89349 7.75447 9.47109H9.1632C9.1632 9.7728 9.28341 10.0108 9.52383 10.1851C9.77177 10.3528 10.1061 10.4366 10.5268 10.4366C10.9326 10.4366 11.2481 10.3528 11.4735 10.1851C11.7064 10.0175 11.8229 9.78621 11.8229 9.4912C11.8229 9.24312 11.7402 9.02857 11.5749 8.84754C11.4172 8.65981 11.188 8.53242 10.8875 8.46537L9.94082 8.23406C9.29468 8.08655 8.79505 7.82171 8.44193 7.43954C8.09632 7.05737 7.92352 6.59474 7.92352 6.05166C7.92352 5.63596 8.02871 5.2739 8.23908 4.96549C8.44945 4.65707 8.74622 4.41905 9.12939 4.25143C9.52008 4.08381 9.97838 4 10.5043 4C11.3007 4 11.9318 4.18438 12.3976 4.55314C12.8635 4.9152 13.1001 5.40465 13.1076 6.02149H11.6989C11.6989 5.73318 11.5937 5.50857 11.3834 5.34766C11.173 5.18004 10.8762 5.09623 10.493 5.09623C10.1249 5.09623 9.83939 5.17333 9.63653 5.32754C9.43368 5.48175 9.33225 5.69966 9.33225 5.98126C9.33225 6.23604 9.40738 6.45394 9.55764 6.63497C9.71542 6.8093 9.94082 6.93333 10.2338 7.00709L11.2143 7.24846C11.868 7.39596 12.3676 7.6608 12.7132 8.04297C13.0588 8.41844 13.2316 8.88442 13.2316 9.44091C13.2316 9.85661 13.1189 10.2254 12.8935 10.5472C12.6681 10.8623 12.3526 11.107 11.9468 11.2814C11.5411 11.4557 11.064 11.5429 10.5156 11.5429Z" fill="#A4B0BE"/>
</svg>
